<svg width="18" height="18" viewBox="0 0 18 18" fill="none" xmlns="http://www.w3.org/2000/svg">
<path fill-rule="evenodd" clip-rule="evenodd" d="M0 0.600019C0 0.440884 0.0632161 0.288267 0.175741 0.175741C0.288267 0.063216 0.440884 0 0.600019 0H2.40007C2.53392 3.69749e-05 2.6639 0.0448222 2.76936 0.127234C2.87482 0.209645 2.9497 0.324951 2.98209 0.454814L3.46811 2.40007H17.4005C17.4886 2.40016 17.5756 2.41964 17.6554 2.45714C17.7351 2.49464 17.8056 2.54923 17.8618 2.61705C17.9181 2.68486 17.9587 2.76423 17.9808 2.84951C18.0029 2.93479 18.006 3.0239 17.9898 3.1105L16.1897 12.7108C16.164 12.8483 16.091 12.9725 15.9834 13.0619C15.8758 13.1513 15.7404 13.2003 15.6005 13.2004H4.80015C4.66026 13.2003 4.52482 13.1513 4.41723 13.0619C4.30964 12.9725 4.23667 12.8483 4.21093 12.7108L2.41207 3.1285L1.93206 1.20004H0.600019C0.440884 1.20004 0.288267 1.13682 0.175741 1.0243C0.0632161 0.91177 0 0.759153 0 0.600019ZM3.72252 3.60011L5.29816 12.0004H15.1025L16.6781 3.60011H3.72252ZM6.00019 13.2004C5.36365 13.2004 4.75318 13.4533 4.30308 13.9034C3.85298 14.3535 3.60011 14.9639 3.60011 15.6005C3.60011 16.237 3.85298 16.8475 4.30308 17.2976C4.75318 17.7477 5.36365 18.0006 6.00019 18.0006C6.63672 18.0006 7.24719 17.7477 7.69729 17.2976C8.1474 16.8475 8.40026 16.237 8.40026 15.6005C8.40026 14.9639 8.1474 14.3535 7.69729 13.9034C7.24719 13.4533 6.63672 13.2004 6.00019 13.2004ZM14.4004 13.2004C13.7639 13.2004 13.1534 13.4533 12.7033 13.9034C12.2532 14.3535 12.0004 14.9639 12.0004 15.6005C12.0004 16.237 12.2532 16.8475 12.7033 17.2976C13.1534 17.7477 13.7639 18.0006 14.4004 18.0006C15.037 18.0006 15.6475 17.7477 16.0976 17.2976C16.5477 16.8475 16.8005 16.237 16.8005 15.6005C16.8005 14.9639 16.5477 14.3535 16.0976 13.9034C15.6475 13.4533 15.037 13.2004 14.4004 13.2004ZM6.00019 14.4004C5.68192 14.4004 5.37668 14.5269 5.15163 14.7519C4.92658 14.977 4.80015 15.2822 4.80015 15.6005C4.80015 15.9188 4.92658 16.224 5.15163 16.449C5.37668 16.6741 5.68192 16.8005 6.00019 16.8005C6.31846 16.8005 6.62369 16.6741 6.84874 16.449C7.07379 16.224 7.20022 15.9188 7.20022 15.6005C7.20022 15.2822 7.07379 14.977 6.84874 14.7519C6.62369 14.5269 6.31846 14.4004 6.00019 14.4004ZM14.4004 14.4004C14.0822 14.4004 13.7769 14.5269 13.5519 14.7519C13.3268 14.977 13.2004 15.2822 13.2004 15.6005C13.2004 15.9188 13.3268 16.224 13.5519 16.449C13.7769 16.6741 14.0822 16.8005 14.4004 16.8005C14.7187 16.8005 15.0239 16.6741 15.249 16.449C15.4741 16.224 15.6005 15.9188 15.6005 15.6005C15.6005 15.2822 15.4741 14.977 15.249 14.7519C15.0239 14.5269 14.7187 14.4004 14.4004 14.4004Z" fill="white"/>
</svg>
